# xmcd
#
# Track frame offsets:
#	150
#	18130
#	41427
#	58510
#	80172
#	105725
#	129027
#	154570
#	173275
#	191107
#	209485
#	224705
#	240810
#	265287
#	279652
#	296362
#	312717
#	328782
#
# Disc length: 4596 seconds
#
# Revision: 0
# Processed by: cddbd v1.5.1PL0 Copyright (c) Steve Scherf et al.
# Submitted via: dBpowerAMP V4.0
#
DISCID=0011f212
DTITLE=Various Artist - Planète Rap
DYEAR=1900
DGENRE=
TTITLE0=K Par Kas - La Manie
TTITLE1=Doc Gynéco - Viens Voir Le Docteur
TTITLE2=2 Bal 2 Neg - Que D'injustice
TTITLE3=2 Bal 2 Neg - Que D'injustice
TTITLE4=Idéal J - Le Ghetto Français
TTITLE5=La Cliqua - Comme Une Serbacane
TTITLE6=Expression Direkt - Mon Esprit Part En C...
TTITLE7=Ärsenik - Ball Trap
TTITLE8=Ghetto Youth Progress - Mon Attitude
TTITLE9=Aliance Ethnik - Honesty and Jalousie
TTITLE10=Métal Sound - Accélère
TTITLE11=Tout Simplement Noir - Tout Simplement Noir
TTITLE12=Ministère Amer - Plus Vite Que Les Balles
TTITLE13=Daara J - Anti-Blood
TTITLE14=Lamifa Feat. Féfé Typical - Chante Pour Les Opprimés
TTITLE15=Timide Et Sans Complexe - Kiff Sur La Musique
TTITLE16=Monsieur R - L'enfer Sur Golgotha
TTITLE17=Démocrates D - L'esprit Du Bosquet
EXTD=
EXTT0=
EXTT1=
EXTT2=
EXTT3=
EXTT4=
EXTT5=
EXTT6=
EXTT7=
EXTT8=
EXTT9=
EXTT10=
EXTT11=
EXTT12=
EXTT13=
EXTT14=
EXTT15=
EXTT16=
EXTT17=
PLAYORDER=
